<svg width="276" height="90" viewBox="0 0 276 90" fill="none" xmlns="http://www.w3.org/2000/svg">
<rect x="1" y="1" width="274" height="88" rx="44" fill="white" stroke="black" stroke-width="2"/>
<path fill-rule="evenodd" clip-rule="evenodd" d="M79.126 38C77.8875 38 76.754 38.2021 75.7569 38.5982C74.7599 38.9943 73.8973 39.5477 73.1933 40.2436C72.4911 40.9395 71.9437 41.7698 71.5679 42.7127C71.1918 43.6538 71 44.6829 71 45.7732C71 46.8105 71.1805 47.782 71.5343 48.6599C71.8882 49.5399 72.4006 50.3108 73.0567 50.9502C73.711 51.59 74.5145 52.097 75.4434 52.4581C76.3704 52.8176 77.4154 53 78.5508 53C80.134 53 81.5641 52.7348 82.8026 52.2126L82.8837 52.1778V50.5884L82.6736 50.6932C81.542 51.2566 80.2114 51.5417 78.7166 51.5417C77.7473 51.5417 76.8846 51.386 76.1567 51.0779C75.4269 50.7678 74.8076 50.3456 74.3192 49.8186C73.8289 49.2896 73.4512 48.6637 73.2004 47.9576C72.948 47.2466 72.8209 46.4795 72.8209 45.6757C72.8209 44.7791 72.9628 43.9408 73.2446 43.1852C73.5249 42.4328 73.9357 41.7717 74.4666 41.2199C74.9955 40.6697 75.6572 40.2356 76.4295 39.9258C77.2036 39.6158 78.1028 39.4601 79.1037 39.4601C80.3661 39.4601 81.5678 39.7136 82.6792 40.2124L82.8837 40.3035V38.5973L82.7936 38.5653C81.7209 38.1905 80.4861 38 79.126 38Z" fill="#161616"/>
<path fill-rule="evenodd" clip-rule="evenodd" d="M94.0583 46.7379C93.7246 46.4031 93.3008 46.0782 92.7995 45.7716C92.3037 45.4701 91.7158 45.1552 91.0504 44.8355C90.422 44.5338 89.8819 44.2619 89.4469 44.0286C89.0214 43.8 88.6729 43.5662 88.4132 43.336C88.1587 43.1105 87.9726 42.8703 87.8584 42.6183C87.7442 42.3666 87.6868 42.0599 87.6868 41.7071C87.6868 41.3392 87.7718 41.0143 87.9395 40.7393C88.1089 40.4625 88.345 40.2273 88.6379 40.0418C88.9366 39.8511 89.2903 39.7053 89.6885 39.6076C90.092 39.5082 90.527 39.4585 90.9841 39.4585C92.2134 39.4585 93.299 39.697 94.2093 40.1676L94.4214 40.277V38.5104L94.3328 38.4773C93.4795 38.1607 92.4087 38 91.1499 38C90.4312 38 89.7456 38.0894 89.1116 38.265C88.4758 38.4408 87.9118 38.6959 87.4363 39.0257C86.9589 39.357 86.5738 39.7631 86.2917 40.2354C86.0099 40.7093 85.8659 41.2512 85.8659 41.846C85.8659 42.3167 85.9417 42.7426 86.0909 43.1119C86.2401 43.4832 86.476 43.8346 86.7931 44.1526C87.1046 44.4675 87.5118 44.7787 88.0021 45.079C88.4869 45.3738 89.0766 45.692 89.7548 46.0237C90.3612 46.3271 90.8957 46.602 91.3436 46.8422C91.7821 47.0795 92.1489 47.3195 92.4363 47.5564C92.7147 47.7901 92.9229 48.0421 93.0556 48.3053C93.1866 48.5705 93.2529 48.8856 93.2529 49.2434C93.2529 49.9903 92.9782 50.5472 92.4124 50.9415C91.8429 51.339 90.9639 51.5411 89.8009 51.5411C89.5004 51.5411 89.1798 51.5167 88.8498 51.468C88.52 51.4202 88.1863 51.3467 87.8584 51.2543C87.5321 51.1597 87.2078 51.0427 86.8944 50.9034C86.583 50.7655 86.2954 50.6063 86.0375 50.434L85.8107 50.2797V52.156L85.8772 52.195C86.0854 52.3115 86.3581 52.4219 86.6881 52.5207C87.0105 52.6176 87.357 52.7037 87.7147 52.7733C88.0703 52.8428 88.4279 52.8983 88.7779 52.9331C89.1282 52.972 89.4359 52.9892 89.6903 52.9892C90.4662 52.9892 91.1886 52.907 91.8392 52.7451C92.4953 52.5832 93.0685 52.3374 93.5459 52.0192C94.0269 51.6956 94.4048 51.2852 94.672 50.7947C94.9391 50.3064 95.0738 49.7323 95.0738 49.0929C95.0738 48.6287 94.9891 48.1999 94.8194 47.8187C94.6517 47.4385 94.3956 47.0758 94.0583 46.7379Z" fill="#161616"/>
<path fill-rule="evenodd" clip-rule="evenodd" d="M106.908 47.8199C106.74 47.4385 106.484 47.0758 106.147 46.7377C105.813 46.4029 105.389 46.0776 104.888 45.7713C104.392 45.4701 103.804 45.1549 103.139 44.8353C102.511 44.5336 101.971 44.2617 101.536 44.0284C101.11 43.7998 100.761 43.566 100.502 43.3358C100.247 43.1103 100.061 42.8701 99.947 42.6181C99.8326 42.3663 99.7754 42.0597 99.7754 41.7069C99.7754 41.3389 99.8602 41.0143 100.028 40.7391C100.198 40.4623 100.433 40.2271 100.726 40.0415C101.025 39.8509 101.379 39.7051 101.777 39.6074C102.181 39.508 102.616 39.4583 103.073 39.4583C104.302 39.4583 105.387 39.6968 106.298 40.1674L106.51 40.2768V38.5104L106.421 38.4773C105.568 38.1607 104.497 38 103.238 38C102.52 38 101.834 38.0894 101.2 38.265C100.564 38.4408 100 38.6959 99.5249 39.0257C99.0475 39.357 98.6622 39.7631 98.3803 40.2354C98.0982 40.7093 97.9545 41.2512 97.9545 41.846C97.9545 42.3167 98.0301 42.7426 98.1795 43.1119C98.3288 43.4832 98.5646 43.8346 98.8817 44.1526C99.193 44.4675 99.6004 44.7787 100.091 45.079C100.575 45.3742 101.165 45.692 101.843 46.0237C102.45 46.3271 102.984 46.602 103.432 46.8422C103.871 47.0795 104.237 47.3195 104.525 47.5568C104.803 47.7901 105.012 48.0421 105.144 48.3053C105.275 48.5705 105.341 48.8856 105.341 49.2434C105.341 49.9903 105.067 50.5472 104.501 50.9415C103.931 51.339 103.052 51.5411 101.889 51.5411C101.589 51.5411 101.268 51.5167 100.938 51.468C100.609 51.4202 100.275 51.3467 99.947 51.2543C99.6207 51.1597 99.2962 51.0427 98.983 50.9034C98.6714 50.7655 98.384 50.6063 98.1261 50.434L97.8993 50.2801V52.156L97.9656 52.195C98.174 52.3115 98.4467 52.4219 98.7767 52.5207C99.0991 52.6176 99.4457 52.7037 99.8031 52.7733C100.159 52.8428 100.516 52.8983 100.867 52.9331C101.217 52.972 101.524 52.9892 101.779 52.9892C102.555 52.9892 103.277 52.907 103.928 52.7451C104.584 52.5832 105.157 52.3374 105.634 52.0192C106.116 51.6956 106.493 51.2852 106.761 50.7947C107.028 50.3064 107.162 49.7327 107.162 49.0929C107.162 48.6299 107.077 48.2009 106.908 47.8199Z" fill="#161616"/>
<path d="M140.173 38.2435H138.418V52.7561H140.173V38.2435Z" fill="#161616"/>
<path fill-rule="evenodd" clip-rule="evenodd" d="M174.618 50.1191C174.603 50.1008 164.394 38.2437 164.394 38.2437H162.554V52.7563H164.308C164.308 52.7563 164.303 40.9979 164.293 40.784C164.298 40.7907 174.632 52.7563 174.632 52.7563H176.374V38.2435H174.609C174.609 38.2435 174.61 50.0263 174.618 50.1191Z" fill="#161616"/>
<path fill-rule="evenodd" clip-rule="evenodd" d="M156.523 50.1191C156.51 50.1008 146.301 38.2437 146.301 38.2437H144.461V52.7563H146.215C146.215 52.7563 146.21 40.9979 146.199 40.784C146.204 40.7907 156.539 52.7563 156.539 52.7563H158.281V38.2435H156.515C156.515 38.2435 156.516 50.0263 156.523 50.1191Z" fill="#161616"/>
<path fill-rule="evenodd" clip-rule="evenodd" d="M182.406 46.1349H189.157V44.6862H182.406V39.7117H190.543V38.2437H180.651V52.7561H190.896V51.2978H182.406V46.1349Z" fill="#161616"/>
<path d="M203.221 48.1529C203.044 47.8551 202.871 47.5847 202.708 47.351C202.544 47.1159 202.374 46.9037 202.204 46.7213C202.033 46.5358 201.853 46.3768 201.67 46.2457C201.569 46.1728 201.46 46.1082 201.346 46.0505C201.794 45.9376 202.205 45.7865 202.575 45.5974C203.034 45.362 203.428 45.0721 203.751 44.734C204.075 44.3959 204.328 44.0033 204.501 43.5658C204.676 43.13 204.765 42.6461 204.765 42.1307C204.765 41.4911 204.626 40.9195 204.357 40.4339C204.086 39.9484 203.723 39.5392 203.273 39.2177C202.827 38.8978 202.311 38.6526 201.74 38.4903C201.173 38.3278 200.575 38.2449 199.969 38.2449H194.363V52.7573H196.117V46.5521H198.618C198.935 46.5521 199.224 46.5853 199.48 46.6515C199.731 46.7163 199.971 46.8255 200.19 46.9764C200.415 47.1309 200.636 47.3427 200.847 47.6019C201.063 47.8688 201.289 48.2036 201.523 48.6011L203.911 52.6865L203.953 52.7538H206L203.221 48.1529ZM196.118 39.7119H199.625C200.705 39.7119 201.538 39.9405 202.102 40.3896C202.661 40.837 202.944 41.4617 202.944 42.2489C202.944 42.6862 202.862 43.084 202.696 43.4321C202.532 43.7782 202.297 44.0783 202 44.3218C201.703 44.569 201.338 44.7595 200.916 44.8934C200.49 45.0264 200.015 45.0943 199.503 45.0943H196.117L196.118 39.7119Z" fill="#161616"/>
<path fill-rule="evenodd" clip-rule="evenodd" d="M109.703 38.2437L120.548 52.7536L121.49 51.5113L111.585 38.2437H109.703Z" fill="#161616"/>
<path fill-rule="evenodd" clip-rule="evenodd" d="M133.682 38.2437L124.727 50.2596L118.253 41.4969H116.348L124.749 52.7553L135.567 38.2437H133.682Z" fill="#161616"/>
<path fill-rule="evenodd" clip-rule="evenodd" d="M131.352 38.2437H129.47L123.786 45.8916L124.721 47.1454L131.352 38.2437Z" fill="#161616"/>
</svg>
