<svg width="276" height="90" viewBox="0 0 276 90" fill="none" xmlns="http://www.w3.org/2000/svg">
<rect x="1" y="1" width="274" height="88" rx="44" fill="white" stroke="black" stroke-width="2"/>
<path d="M82.5554 39.6932V42.3352H73V39.6932H82.5554ZM75.62 56.6023V37.7337C75.62 36.6768 75.8512 35.7998 76.3136 35.1026C76.7759 34.3981 77.3887 33.8733 78.152 33.5284C78.9152 33.1761 79.7446 33 80.6399 33C81.3004 33 81.8655 33.055 82.3352 33.1651C82.8049 33.2679 83.1535 33.3633 83.381 33.4514L82.6104 36.1154C82.4563 36.0714 82.2582 36.02 82.016 35.9613C81.7738 35.8952 81.4802 35.8622 81.1353 35.8622C80.3353 35.8622 79.7629 36.0604 79.418 36.4567C79.0804 36.853 78.9116 37.4254 78.9116 38.174V56.6023H75.62Z" fill="black"/>
<path d="M89.4277 56.9766C88.3562 56.9766 87.3874 56.7784 86.5214 56.3821C85.6554 55.9785 84.9692 55.395 84.4628 54.6317C83.9638 53.8685 83.7143 52.9328 83.7143 51.8246C83.7143 50.8705 83.8977 50.0852 84.2647 49.4688C84.6316 48.8523 85.127 48.3642 85.7508 48.0046C86.3747 47.645 87.0719 47.3735 87.8425 47.19C88.6131 47.0065 89.3983 46.8671 90.1983 46.7717C91.2111 46.6542 92.033 46.5588 92.6642 46.4854C93.2953 46.4047 93.754 46.2763 94.0403 46.1001C94.3265 45.924 94.4696 45.6378 94.4696 45.2415V45.1644C94.4696 44.203 94.198 43.4581 93.655 42.9297C93.1192 42.4013 92.3193 42.1371 91.2551 42.1371C90.1469 42.1371 89.2736 42.3829 88.6351 42.8746C88.0039 43.359 87.5672 43.8984 87.3251 44.4929L84.2317 43.7884C84.5986 42.7609 85.1344 41.9316 85.8389 41.3004C86.5508 40.6619 87.3691 40.1996 88.2938 39.9134C89.2185 39.6198 90.1909 39.473 91.2111 39.473C91.8863 39.473 92.6018 39.5537 93.3577 39.7152C94.121 39.8693 94.8329 40.1555 95.4934 40.5739C96.1612 40.9922 96.708 41.5903 97.1337 42.3683C97.5593 43.1389 97.7721 44.1406 97.7721 45.3736V56.6023H94.5577V54.2905H94.4256C94.2127 54.7161 93.8935 55.1345 93.4678 55.5455C93.0422 55.9564 92.4954 56.2977 91.8275 56.5692C91.1597 56.8408 90.3597 56.9766 89.4277 56.9766ZM90.1432 54.3345C91.0533 54.3345 91.8312 54.1547 92.477 53.7951C93.1302 53.4355 93.6256 52.9658 93.9632 52.386C94.3081 51.7989 94.4806 51.1714 94.4806 50.5036V48.3239C94.3632 48.4413 94.1357 48.5514 93.7981 48.6541C93.4678 48.7495 93.0899 48.8339 92.6642 48.9073C92.2385 48.9734 91.8239 49.0357 91.4202 49.0945C91.0166 49.1458 90.679 49.1899 90.4074 49.2266C89.769 49.3073 89.1855 49.4431 88.6571 49.6339C88.136 49.8247 87.7177 50.0999 87.4021 50.4595C87.0939 50.8118 86.9398 51.2815 86.9398 51.8686C86.9398 52.6832 87.2407 53.2997 87.8425 53.718C88.4443 54.129 89.2112 54.3345 90.1432 54.3345Z" fill="black"/>
<path d="M108.349 56.9435C106.712 56.9435 105.303 56.5729 104.122 55.8317C102.947 55.0831 102.045 54.052 101.413 52.7383C100.782 51.4246 100.467 49.9201 100.467 48.2248C100.467 46.5075 100.79 44.992 101.435 43.6783C102.081 42.3572 102.991 41.3261 104.166 40.5849C105.34 39.8436 106.723 39.473 108.316 39.473C109.6 39.473 110.745 39.7115 111.75 40.1886C112.756 40.6583 113.567 41.3188 114.183 42.1701C114.807 43.0214 115.178 44.0159 115.295 45.1534H112.092C111.916 44.3608 111.512 43.6783 110.881 43.1058C110.257 42.5334 109.42 42.2472 108.371 42.2472C107.453 42.2472 106.65 42.4893 105.96 42.9737C105.277 43.4508 104.745 44.1333 104.364 45.0213C103.982 45.902 103.791 46.9441 103.791 48.1477C103.791 49.3807 103.978 50.4448 104.353 51.3402C104.727 52.2356 105.255 52.9291 105.938 53.4208C106.628 53.9125 107.439 54.1584 108.371 54.1584C108.995 54.1584 109.56 54.0446 110.066 53.8171C110.58 53.5823 111.009 53.2483 111.354 52.8153C111.706 52.3823 111.952 51.8613 112.092 51.2521H115.295C115.178 52.3456 114.822 53.3217 114.227 54.1804C113.633 55.0391 112.837 55.7143 111.839 56.206C110.848 56.6977 109.685 56.9435 108.349 56.9435Z" fill="black"/>
<path d="M125.173 56.9435C123.507 56.9435 122.072 56.5876 120.868 55.8757C119.672 55.1565 118.747 54.1474 118.094 52.8484C117.448 51.542 117.126 50.0118 117.126 48.2578C117.126 46.5258 117.448 44.9993 118.094 43.6783C118.747 42.3572 119.658 41.3261 120.824 40.5849C121.999 39.8436 123.371 39.473 124.942 39.473C125.896 39.473 126.82 39.6308 127.716 39.9464C128.611 40.262 129.415 40.7573 130.127 41.4325C130.839 42.1077 131.4 42.9847 131.811 44.0636C132.222 45.1351 132.427 46.4377 132.427 47.9716V49.1385H118.986V46.6726H129.202C129.202 45.8066 129.026 45.0397 128.674 44.3718C128.321 43.6966 127.826 43.1645 127.187 42.7756C126.556 42.3866 125.815 42.1921 124.964 42.1921C124.039 42.1921 123.232 42.4196 122.542 42.8746C121.859 43.3223 121.331 43.9094 120.957 44.636C120.59 45.3552 120.406 46.1368 120.406 46.9808V48.9073C120.406 50.0375 120.604 50.9989 121.001 51.7915C121.404 52.5842 121.966 53.1896 122.685 53.608C123.404 54.0189 124.244 54.2244 125.206 54.2244C125.83 54.2244 126.398 54.1364 126.912 53.9602C127.426 53.7768 127.87 53.5052 128.244 53.1456C128.618 52.786 128.905 52.342 129.103 51.8136L132.218 52.375C131.969 53.2924 131.521 54.096 130.875 54.7859C130.237 55.4684 129.433 56.0005 128.464 56.3821C127.503 56.7564 126.406 56.9435 125.173 56.9435Z" fill="black"/>
<path d="M135.414 56.6023V34.0568H138.705V42.4343H138.903C139.094 42.082 139.369 41.6747 139.729 41.2124C140.089 40.75 140.588 40.3464 141.226 40.0014C141.865 39.6491 142.709 39.473 143.758 39.473C145.123 39.473 146.341 39.8179 147.413 40.5078C148.484 41.1977 149.325 42.1921 149.934 43.4911C150.55 44.7901 150.859 46.3533 150.859 48.1808C150.859 50.0082 150.554 51.575 149.945 52.8814C149.336 54.1804 148.499 55.1822 147.435 55.8867C146.371 56.5839 145.156 56.9325 143.791 56.9325C142.764 56.9325 141.923 56.7601 141.27 56.4151C140.624 56.0702 140.118 55.6665 139.751 55.2042C139.384 54.7418 139.102 54.3308 138.903 53.9712H138.628V56.6023H135.414ZM138.639 48.1477C138.639 49.3366 138.812 50.3788 139.157 51.2741C139.502 52.1695 140.001 52.8704 140.654 53.3768C141.307 53.8758 142.107 54.1254 143.054 54.1254C144.037 54.1254 144.859 53.8648 145.52 53.3438C146.18 52.8153 146.679 52.0998 147.017 51.1971C147.362 50.2944 147.534 49.2779 147.534 48.1477C147.534 47.0322 147.365 46.0304 147.028 45.1424C146.697 44.2544 146.198 43.5535 145.531 43.0398C144.87 42.526 144.044 42.2692 143.054 42.2692C142.1 42.2692 141.292 42.515 140.632 43.0067C139.979 43.4985 139.483 44.1847 139.146 45.0653C138.808 45.946 138.639 46.9735 138.639 48.1477Z" fill="black"/>
<path d="M160.747 56.9435C159.162 56.9435 157.779 56.5803 156.597 55.8537C155.415 55.1271 154.498 54.1107 153.845 52.8043C153.192 51.498 152.865 49.9715 152.865 48.2248C152.865 46.4708 153.192 44.9369 153.845 43.6232C154.498 42.3095 155.415 41.2894 156.597 40.5629C157.779 39.8363 159.162 39.473 160.747 39.473C162.333 39.473 163.716 39.8363 164.897 40.5629C166.079 41.2894 166.996 42.3095 167.65 43.6232C168.303 44.9369 168.629 46.4708 168.629 48.2248C168.629 49.9715 168.303 51.498 167.65 52.8043C166.996 54.1107 166.079 55.1271 164.897 55.8537C163.716 56.5803 162.333 56.9435 160.747 56.9435ZM160.758 54.1804C161.786 54.1804 162.637 53.9089 163.312 53.3658C163.987 52.8227 164.487 52.0998 164.809 51.1971C165.14 50.2944 165.305 49.3 165.305 48.2138C165.305 47.1349 165.14 46.1442 164.809 45.2415C164.487 44.3314 163.987 43.6012 163.312 43.0508C162.637 42.5004 161.786 42.2251 160.758 42.2251C159.723 42.2251 158.865 42.5004 158.182 43.0508C157.507 43.6012 157.004 44.3314 156.674 45.2415C156.351 46.1442 156.19 47.1349 156.19 48.2138C156.19 49.3 156.351 50.2944 156.674 51.1971C157.004 52.0998 157.507 52.8227 158.182 53.3658C158.865 53.9089 159.723 54.1804 160.758 54.1804Z" fill="black"/>
<path d="M178.496 56.9435C176.911 56.9435 175.527 56.5803 174.346 55.8537C173.164 55.1271 172.247 54.1107 171.594 52.8043C170.94 51.498 170.614 49.9715 170.614 48.2248C170.614 46.4708 170.94 44.9369 171.594 43.6232C172.247 42.3095 173.164 41.2894 174.346 40.5629C175.527 39.8363 176.911 39.473 178.496 39.473C180.081 39.473 181.465 39.8363 182.646 40.5629C183.828 41.2894 184.745 42.3095 185.398 43.6232C186.052 44.9369 186.378 46.4708 186.378 48.2248C186.378 49.9715 186.052 51.498 185.398 52.8043C184.745 54.1107 183.828 55.1271 182.646 55.8537C181.465 56.5803 180.081 56.9435 178.496 56.9435ZM178.507 54.1804C179.534 54.1804 180.386 53.9089 181.061 53.3658C181.736 52.8227 182.235 52.0998 182.558 51.1971C182.888 50.2944 183.054 49.3 183.054 48.2138C183.054 47.1349 182.888 46.1442 182.558 45.2415C182.235 44.3314 181.736 43.6012 181.061 43.0508C180.386 42.5004 179.534 42.2251 178.507 42.2251C177.472 42.2251 176.614 42.5004 175.931 43.0508C175.256 43.6012 174.753 44.3314 174.423 45.2415C174.1 46.1442 173.938 47.1349 173.938 48.2138C173.938 49.3 174.1 50.2944 174.423 51.1971C174.753 52.0998 175.256 52.8227 175.931 53.3658C176.614 53.9089 177.472 54.1804 178.507 54.1804Z" fill="black"/>
<path d="M192.15 50.8668L192.128 46.8487H192.7L199.437 39.6932H203.378L195.694 47.8395H195.177L192.15 50.8668ZM189.122 56.6023V34.0568H192.414V56.6023H189.122ZM199.8 56.6023L193.746 48.5661L196.014 46.2653L203.841 56.6023H199.8Z" fill="black"/>
</svg>
