<svg width="304" height="136" viewBox="0 0 304 136" fill="none" xmlns="http://www.w3.org/2000/svg">
<rect x="1.14895" y="48.8242" width="291.231" height="86.4447" rx="43.2223" transform="rotate(-9.34271 1.14895 48.8242)" fill="white" stroke="black" stroke-width="2"/>
<path d="M84.9168 67.3687L78.1765 88.3135L82.7833 87.5558L89.5273 66.6104L84.9168 67.3687Z" fill="black"/>
<path d="M143.264 65.7124L142.723 67.3872L142.676 67.395C142.246 66.8325 141.655 66.412 140.98 66.1883C140.305 66.0053 139.596 65.9782 138.908 66.1094C138.16 66.2165 137.448 66.4991 136.832 66.9337C136.269 67.3352 135.804 67.8559 135.469 68.4577C135.126 69.0762 134.903 69.7529 134.812 70.4524C134.708 71.191 134.717 71.9409 134.841 72.676C134.961 73.4326 135.177 74.1708 135.484 74.873C135.764 75.5174 136.172 76.0994 136.682 76.5849C137.181 77.052 137.785 77.3944 138.445 77.5837C139.205 77.7895 140.005 77.8194 140.78 77.6713C141.478 77.56 142.143 77.2972 142.727 76.9017C143.311 76.519 143.752 75.9572 143.984 75.3023L144.027 75.295L144.278 76.821C144.576 78.6291 143.893 79.8037 142.195 80.0829C140.496 80.3623 139.474 79.7877 138.895 79.2738L138.11 81.739C138.11 81.739 139.615 82.6948 142.097 82.2866C146.211 81.6098 147.817 79.3069 147.303 76.1825L145.518 65.3341L143.264 65.7124ZM143.427 72.7161C143.38 73.101 143.264 73.4749 143.085 73.8197C142.907 74.1584 142.655 74.4536 142.347 74.6837C142.007 74.929 141.612 75.0883 141.196 75.148C140.763 75.2359 140.313 75.1977 139.901 75.0378C139.541 74.8883 139.221 74.6573 138.967 74.3633C138.702 74.0578 138.496 73.7065 138.359 73.3268C138.207 72.9313 138.096 72.5216 138.026 72.1039C137.956 71.6849 137.938 71.259 137.971 70.8354C137.999 70.4435 138.101 70.06 138.272 69.7052C138.435 69.3714 138.672 69.0784 138.966 68.8483C139.292 68.6014 139.678 68.4433 140.084 68.3895C140.535 68.2972 141.003 68.3226 141.44 68.4635C141.806 68.5951 142.134 68.8141 142.395 69.1013C142.67 69.4125 142.886 69.7708 143.033 70.1588C143.199 70.5885 143.319 71.0343 143.39 71.4891C143.462 71.894 143.474 72.3073 143.427 72.7161Z" fill="black"/>
<path d="M99.8002 68.3302L100.791 74.3546L100.86 74.3432C101.118 73.6536 101.576 73.0548 102.176 72.6228C102.7 72.2361 103.306 71.9749 103.948 71.8596C104.667 71.7217 105.405 71.7265 106.121 71.8735C106.664 71.9934 107.166 72.2513 107.577 72.622C107.98 73.0137 108.29 73.4888 108.487 74.0136C108.727 74.6364 108.9 75.2826 109.003 75.9418L110.174 83.0655L106.974 83.5918L105.896 77.0358C105.824 76.2876 105.546 75.5739 105.093 74.973C104.716 74.5485 104.139 74.387 103.374 74.5129C102.499 74.6568 101.911 75.0209 101.602 75.5991C101.293 76.1773 101.24 77.0589 101.432 78.2269L102.434 84.3236L99.2272 84.8512L96.5966 68.8571L99.8002 68.3302Z" fill="black"/>
<path d="M110.107 74.2714C110.251 73.507 110.558 72.7816 111.007 72.1438C111.458 71.519 112.034 70.9931 112.699 70.5991C114.212 69.7548 115.975 69.4649 117.678 69.7802C118.444 69.9314 119.167 70.2464 119.796 70.7034C120.426 71.1604 120.948 71.7484 121.325 72.4264C121.755 73.1887 122.041 74.0224 122.171 74.8869C122.323 75.7406 122.317 76.6149 122.154 77.4672C122.004 78.2259 121.697 78.9457 121.251 79.5804C120.795 80.1995 120.211 80.7148 119.538 81.0914C118.019 81.9216 116.261 82.2107 114.556 81.9109C113.8 81.7587 113.085 81.4483 112.46 81.0003C111.833 80.544 111.31 79.9602 110.928 79.2876C110.499 78.5331 110.213 77.7064 110.085 76.8488C109.935 75.9958 109.943 75.1226 110.107 74.2714ZM113.659 77.6648C113.809 78.0725 114.032 78.4498 114.318 78.7783C114.589 79.0907 114.934 79.3302 115.323 79.4746C115.776 79.6294 116.262 79.661 116.731 79.5662C117.208 79.5038 117.66 79.318 118.042 79.0274C118.371 78.7677 118.627 78.4289 118.786 78.0434C118.95 77.6403 119.041 77.2117 119.053 76.7776C119.071 76.3175 119.042 75.8569 118.966 75.403C118.891 74.9439 118.771 74.4934 118.606 74.0583C118.457 73.6503 118.234 73.273 117.948 72.9447C117.669 72.6298 117.316 72.387 116.922 72.237C116.467 72.0798 115.978 72.046 115.506 72.1393C115.06 72.1886 114.636 72.3565 114.278 72.6252C113.921 72.8939 113.642 73.2534 113.473 73.6658C113.306 74.0678 113.216 74.4971 113.206 74.9316C113.188 75.3966 113.217 75.8621 113.293 76.3213C113.367 76.7806 113.488 77.231 113.656 77.6654L113.659 77.6648Z" fill="black"/>
<path d="M131.909 79.4761L131.647 77.8814L131.581 77.8921C131.318 78.5827 130.849 79.1778 130.237 79.5988C129.664 79.9916 129.011 80.255 128.324 80.3702C127.61 80.5111 126.875 80.5159 126.159 80.3846C125.615 80.2735 125.112 80.0172 124.705 79.6434C124.299 79.2537 123.987 78.7783 123.791 78.2524C123.551 77.6296 123.379 76.9833 123.276 76.3242L122.103 69.1932L125.31 68.6657L126.386 75.2073C126.458 75.9567 126.736 76.6715 127.19 77.2737C127.566 77.6946 128.14 77.8478 128.912 77.7332C129.785 77.5897 130.374 77.2278 130.68 76.6476C130.986 76.07 131.043 75.1878 130.851 74.0198L129.847 67.9194L133.051 67.3925L134.954 78.9641L131.909 79.4761Z" fill="black"/>
<path d="M149.197 60.2057L150.188 66.2302L150.253 66.2194C150.513 65.5297 150.972 64.9309 151.573 64.4983C152.096 64.1117 152.703 63.8504 153.345 63.7351C154.064 63.5972 154.802 63.602 155.518 63.7491C156.062 63.8629 156.567 64.1152 156.982 64.4813C157.385 64.8736 157.697 65.3482 157.896 65.8722C158.135 66.4954 158.307 67.1418 158.408 67.8011L159.58 74.9248L156.376 75.4517L155.3 68.9101C155.227 68.1623 154.949 67.449 154.497 66.8474C154.116 66.4147 153.542 66.2615 152.774 66.3879C151.9 66.5317 151.312 66.8958 151.006 67.4734C150.701 68.051 150.644 68.9332 150.836 70.1012L151.839 76.198L148.631 76.7255L146.001 60.7314L149.197 60.2057Z" fill="black"/>
<path d="M182.672 62.6037C182.814 61.8434 183.119 61.1218 183.566 60.4882C184.014 59.8544 184.593 59.3235 185.265 58.9312C186.778 58.087 188.54 57.7971 190.244 58.1124C191.009 58.2652 191.731 58.581 192.36 59.0378C192.99 59.4945 193.512 60.0817 193.89 60.7586C194.32 61.521 194.607 62.3546 194.737 63.2191C194.889 64.0728 194.882 64.9471 194.719 65.7995C194.571 66.5591 194.262 67.2794 193.813 67.9132C193.36 68.5321 192.779 69.0471 192.107 69.4231C190.588 70.2532 188.83 70.5423 187.126 70.2425C186.369 70.0913 185.654 69.7808 185.029 69.332C184.401 68.8751 183.878 68.2917 183.494 67.6198C183.067 66.8642 182.783 66.0376 182.655 65.1804C182.505 64.3277 182.511 63.455 182.672 62.6037ZM186.225 65.997C186.376 66.4041 186.599 66.7812 186.884 67.1106C187.157 67.4219 187.503 67.661 187.892 67.8063C188.345 67.9609 188.831 67.9926 189.3 67.8978C189.777 67.8355 190.229 67.6497 190.612 67.359C190.939 67.0984 191.195 66.7599 191.355 66.3751C191.519 65.972 191.61 65.5433 191.623 65.1092C191.641 64.6491 191.611 64.1885 191.535 63.7346C191.461 63.2755 191.34 62.825 191.175 62.3899C191.026 61.9819 190.803 61.6046 190.517 61.2763C190.237 60.9624 189.885 60.7197 189.491 60.5686C189.036 60.4114 188.547 60.3777 188.075 60.471C187.599 60.5321 187.149 60.7203 186.772 61.0157C186.455 61.2826 186.204 61.6188 186.039 61.998C185.873 62.4005 185.783 62.8295 185.772 63.2637C185.757 63.7288 185.787 64.1939 185.862 64.6528C185.936 65.112 186.057 65.5623 186.222 65.9975L186.225 65.997Z" fill="black"/>
<path d="M206.29 50.8154L207.701 59.3965L211.054 54.563L214.848 53.939L211.145 58.9193L217.252 65.4392L213.367 66.0783L209.312 61.4305L208.265 62.821L208.919 66.7987L205.712 67.3262L203.083 51.3429L206.29 50.8154Z" fill="black"/>
<path d="M219.145 62.1714C219.321 62.3879 219.543 62.5632 219.795 62.6848C220.059 62.8111 220.343 62.8902 220.635 62.9181C220.946 62.9449 221.259 62.932 221.568 62.8797C221.807 62.8397 222.041 62.7738 222.265 62.6833C222.495 62.5969 222.709 62.4765 222.903 62.3259C223.086 62.1835 223.234 62.0016 223.335 61.7942C223.447 61.5578 223.477 61.2919 223.421 61.0374C223.342 60.56 222.963 60.2548 222.284 60.1102C221.361 59.9497 220.427 59.855 219.49 59.827C219.006 59.7989 218.53 59.7509 218.063 59.6902C217.619 59.6357 217.185 59.5182 216.774 59.3413C216.396 59.1721 216.061 58.9198 215.796 58.6035C215.51 58.2476 215.327 57.8205 215.267 57.3684C215.134 56.7318 215.182 56.0707 215.406 55.4588C215.613 54.9425 215.949 54.487 216.382 54.1358C216.845 53.7686 217.368 53.4828 217.928 53.291C218.519 53.0786 219.128 52.9212 219.749 52.8208C220.366 52.717 220.992 52.675 221.618 52.6952C222.199 52.7098 222.772 52.8268 223.311 53.0408C223.826 53.2481 224.287 53.5684 224.659 53.9777C225.078 54.463 225.369 55.0443 225.506 55.6694L222.46 56.1705C222.424 55.919 222.322 55.6815 222.163 55.483C222.004 55.2845 221.794 55.132 221.555 55.0417C221.054 54.8918 220.525 54.8642 220.011 54.9615C219.815 54.9944 219.621 55.0375 219.429 55.0905C219.234 55.1437 219.048 55.2256 218.878 55.3334C218.717 55.4323 218.584 55.5691 218.49 55.7315C218.39 55.9139 218.36 56.126 218.405 56.3285C218.422 56.4612 218.469 56.5881 218.543 56.6996C218.618 56.811 218.717 56.904 218.833 56.9713C219.108 57.129 219.413 57.2316 219.728 57.2734C220.13 57.3341 220.535 57.3716 220.941 57.3859C221.394 57.4055 221.854 57.4301 222.323 57.4594C222.801 57.4849 223.277 57.5369 223.749 57.6149C224.194 57.6834 224.626 57.8177 225.031 58.0131C225.414 58.1979 225.752 58.4644 226.02 58.7937C226.312 59.1735 226.499 59.6232 226.56 60.0976C226.694 60.7191 226.657 61.365 226.454 61.9685C226.251 62.572 225.889 63.111 225.406 63.5297C224.939 63.9394 224.399 64.2589 223.813 64.4714C223.191 64.7033 222.547 64.8738 221.89 64.9808C221.224 65.0922 220.547 65.135 219.872 65.1085C219.239 65.0876 218.616 64.9536 218.032 64.7128C217.43 64.4702 216.902 64.0762 216.499 63.5695C216.097 63.0627 215.834 62.4605 215.738 61.8219L218.785 61.3208C218.826 61.6316 218.95 61.9254 219.145 62.1714Z" fill="black"/>
<path d="M165.958 71.4355C165.581 71.5455 165.176 71.5143 164.821 71.3478C164.548 71.0674 164.389 70.6972 164.373 70.3072L163.432 64.5829L165.221 64.2887L165.964 61.9789L163.085 62.4525L162.514 58.981L159.306 59.5085L159.877 62.98L158.274 63.2437L157.53 65.5499L160.223 65.1069L161.347 71.9414C161.407 72.4319 161.588 72.8999 161.874 73.3031C162.115 73.6196 162.44 73.8622 162.813 74.0029C163.21 74.1439 163.63 74.2108 164.051 74.2004C164.529 74.1934 165.007 74.1496 165.478 74.0697C165.795 74.0176 166.116 73.9648 166.444 73.8885C166.745 73.826 167.042 73.7462 167.333 73.6495L166.927 71.1833C166.776 71.2418 166.622 71.2907 166.465 71.3299C166.311 71.3702 166.14 71.4056 165.958 71.4355Z" fill="black"/>
<path d="M96.8348 82.8045C96.4572 82.914 96.0527 82.8828 95.6974 82.7167C95.4246 82.4363 95.2652 82.0661 95.2493 81.6762L94.3078 75.9519L95.9588 75.6804L96.7019 73.3706L93.9647 73.8208L93.3938 70.3493L90.1902 70.8762L90.7611 74.3477L89.1539 74.6121L88.4102 76.9182L91.1072 76.4746L92.2313 83.3091C92.2894 83.7995 92.4693 84.2676 92.7548 84.6714C92.9957 84.9871 93.3208 85.2294 93.6934 85.3713C94.0938 85.5124 94.5171 85.5787 94.9421 85.567C95.4204 85.5599 95.8976 85.5162 96.3692 85.4363C96.6864 85.3841 97.0108 85.3308 97.3352 85.2551C97.6346 85.1927 97.9303 85.1131 98.2205 85.0166L97.8149 82.5505C97.664 82.6089 97.5095 82.6579 97.3524 82.6971C97.1871 82.7391 97.0134 82.7751 96.8348 82.8045Z" fill="black"/>
<path d="M201.258 55.8548C198.564 56.2979 197.938 58.9301 197.938 58.9301L197.894 58.9372L197.54 56.7856L194.493 57.2868L196.396 68.8584L199.6 68.3315L198.804 63.4931C198.341 60.6725 198.688 59.323 201.111 58.9244C201.546 58.8463 201.994 58.8774 202.414 59.0147L203.347 56.1128C202.692 55.8246 201.965 55.7349 201.258 55.8548Z" fill="black"/>
<path d="M179.014 59.8365L178.155 68.0258L178.112 68.0329L174.837 60.5235L171.721 61.036L171.071 69.2169L171.027 69.2241L167.591 61.7152L166.171 66.1195L169.813 73.2419L173.129 72.6964L173.837 64.5949L173.881 64.5877L177.237 72.0208L180.535 71.4783L182.308 59.2947L179.014 59.8365Z" fill="black"/>
</svg>
