<svg width="276" height="90" viewBox="0 0 276 90" fill="none" xmlns="http://www.w3.org/2000/svg">
<rect x="1" y="1" width="274" height="88" rx="44" fill="white" stroke="black" stroke-width="2"/>
<path fill-rule="evenodd" clip-rule="evenodd" d="M142.659 38.193C139.042 38.9665 136.906 42.1317 137.4 45.9836C137.82 49.2514 139.843 51.2997 143.2 51.8562C145.693 52.2694 148.091 51.7824 149.787 50.5181C151.354 49.3507 152.143 47.747 152.284 45.4443C152.515 41.6815 150.475 38.9326 146.901 38.188C145.688 37.9354 143.853 37.9376 142.659 38.193ZM185.631 38.1277C183.71 38.4456 182.373 39.3132 181.738 40.6545C181.133 41.931 181.308 43.9749 182.095 44.8416C182.473 45.2571 183.331 45.7586 183.982 45.9447C184.3 46.0355 185.675 46.233 187.037 46.3836C190.006 46.7118 190.46 46.8938 190.46 47.7564C190.46 48.1976 190.374 48.3757 190.044 48.6181C189.687 48.8807 189.385 48.9298 187.905 48.9675C186.348 49.007 186.119 48.9793 185.519 48.6776C185.082 48.4579 184.783 48.1826 184.644 47.8727L184.433 47.4015H182.767H181.101L181.185 47.8727C181.553 49.9453 182.71 51.1616 184.83 51.7069C186.003 52.0085 188.98 52.0427 190.091 51.7674C191.723 51.3633 192.803 50.6465 193.397 49.5736C194.555 47.4828 193.612 44.8557 191.452 44.1504C191.038 44.0154 189.631 43.7823 188.324 43.6323C185.258 43.2806 184.451 42.9163 184.688 41.989C184.849 41.3582 185.802 40.9698 187.215 40.9589C187.864 40.954 188.572 40.9988 188.789 41.0587C189.306 41.2011 190.082 41.8503 190.248 42.2781C190.374 42.6053 190.436 42.6172 192.005 42.6172H193.631L193.629 42.146C193.628 41.5476 193.067 40.357 192.475 39.694C191.906 39.0565 190.444 38.3411 189.29 38.1345C188.303 37.9579 186.675 37.9548 185.631 38.1277ZM77.4054 40.5948C75.3368 41.8652 72.5998 43.5413 71.3231 44.3194L69.0017 45.7342L69 48.6856C68.9986 51.1608 69.0318 51.6243 69.2055 51.5587C69.3692 51.497 76.6366 47.0928 80.5828 44.6639L81.3264 44.2062L84.5651 44.2453C88.9329 44.2981 88.9302 44.2518 84.7014 46.7213C82.3118 48.1167 81.4851 48.6722 81.3753 48.9561C81.2949 49.1638 81.2483 49.8613 81.2716 50.5061L81.314 51.6783H85.0751H88.8363V45.1127C88.8363 39.4344 88.8063 38.5285 88.615 38.4096C88.4904 38.3324 86.8151 38.2751 84.7802 38.2786L81.1666 38.285L77.4054 40.5948ZM100.071 38.3728C99.8969 38.6509 94.9573 51.3952 94.9573 51.567C94.9573 51.7191 95.3248 51.7514 96.6893 51.7192L98.4213 51.6783L98.8662 50.446L99.311 49.2137H102.247H105.183L105.564 50.3042C105.774 50.9042 105.999 51.4749 106.065 51.5728C106.198 51.7707 109.489 51.8351 109.61 51.6421C109.647 51.5822 108.504 48.5649 107.07 44.9369L104.463 38.3403L102.302 38.3003C101.114 38.2783 100.11 38.3109 100.071 38.3728ZM110.211 38.4637C110.167 38.5768 110.151 40.8134 110.177 43.434C110.221 48.0511 110.234 48.2218 110.563 48.9381C111.255 50.4402 112.798 51.4707 114.919 51.8478C117.788 52.358 120.879 51.4947 122.096 49.8429C122.922 48.723 122.981 48.2647 122.981 43.0211V38.2583L121.322 38.2993L119.663 38.3403L119.589 42.8347C119.541 45.7426 119.455 47.4569 119.346 47.6914C118.949 48.5452 118.017 48.9968 116.654 48.9954C115.479 48.9942 114.856 48.7844 114.273 48.1925L113.763 47.6758L113.689 43.0081L113.615 38.3403L111.953 38.2993C110.627 38.2666 110.275 38.2998 110.211 38.4637ZM124.704 38.363C124.649 38.4169 124.604 39.0683 124.604 39.8104V41.1597L126.779 41.1998L128.955 41.2399L128.993 46.5002L129.032 51.7603L130.69 51.7194L132.347 51.6783L132.386 46.4229L132.425 41.1674H134.64H136.856L136.814 39.7539L136.772 38.3403L130.788 38.3025C127.496 38.2816 124.758 38.3089 124.704 38.363ZM154.25 45.0282V51.7884L158.343 51.7063C160.594 51.6612 162.744 51.5512 163.12 51.4618C164.806 51.0613 165.969 49.9335 166.425 48.257C167.003 46.1276 166.821 42.4035 166.06 40.7892C165.088 38.7295 163.524 38.2753 157.384 38.2703L154.25 38.2679V45.0282ZM168.773 38.4472C168.733 38.548 168.719 41.5661 168.74 45.1543L168.778 51.6783H174.162H179.545L179.587 50.2673L179.63 48.8562L175.9 48.8175L172.171 48.7788L172.128 47.5827L172.085 46.3866H175.115H178.144V44.9399V43.493L175.157 43.4539L172.171 43.4146V42.3272V41.2399L175.9 41.2012L179.63 41.1625L179.587 39.7514L179.545 38.3403L174.195 38.3022C169.993 38.2724 168.829 38.3035 168.773 38.4472ZM195.763 38.4491C195.724 38.5488 195.71 41.5661 195.731 45.1543L195.77 51.6783H197.392H199.014L199.088 49.1621L199.162 46.6457L201.519 49.1983L203.875 51.7508H205.747C206.777 51.7508 207.727 51.7101 207.859 51.6602C208.049 51.5888 207.873 51.3352 207.03 50.4642C206.442 49.8561 205.491 48.8694 204.918 48.2714C204.345 47.6733 203.42 46.7131 202.864 46.1377L201.852 45.0913L203.457 43.3831C204.339 42.4435 205.432 41.2834 205.885 40.805C207.768 38.8141 208.078 38.4537 207.986 38.3631C207.932 38.3108 207.045 38.2679 206.013 38.2679H204.137L203.578 38.884C203.27 39.223 202.508 40.0547 201.886 40.7325C201.264 41.4103 200.429 42.3346 200.032 42.7865C199.635 43.2386 199.26 43.6136 199.199 43.6202C199.138 43.6267 199.088 42.4251 199.088 40.95V38.2679H197.461C196.296 38.2679 195.814 38.3193 195.763 38.4491ZM146.472 41.2506C147.842 41.7098 148.793 43.2484 148.793 45.0093C148.793 46.6325 148.07 47.9466 146.816 48.6057C146.316 48.8681 145.969 48.923 144.81 48.9233C143.544 48.9238 143.342 48.8851 142.714 48.5219C141.79 47.9881 141.33 47.3619 141.038 46.2417C140.461 44.028 141.395 41.8658 143.208 41.2209C143.923 40.9668 145.671 40.9826 146.472 41.2506ZM103.216 43.7612C103.703 45.1361 104.102 46.2894 104.102 46.3239C104.102 46.3584 103.272 46.3866 102.258 46.3866C101.244 46.3866 100.415 46.34 100.415 46.283C100.415 46.1138 102.241 41.1748 102.287 41.2199C102.31 41.2427 102.728 42.3863 103.216 43.7612ZM162.183 41.5506C162.977 42.1209 163.173 42.7789 163.173 44.8644C163.173 46.5854 163.141 46.8119 162.805 47.4715C162.229 48.6002 161.791 48.7763 159.56 48.7776L157.716 48.7788L157.677 45.1569C157.655 43.1649 157.673 41.4439 157.716 41.3324C157.78 41.168 158.172 41.1423 159.788 41.1963C161.476 41.2525 161.843 41.3067 162.183 41.5506Z" fill="black"/>
</svg>
