<svg width="280" height="167" viewBox="0 0 280 167" fill="none" xmlns="http://www.w3.org/2000/svg">
<rect x="27.6646" y="1.24833" width="274" height="88" rx="44" transform="rotate(16.9699 27.6646 1.24833)" fill="white" stroke="black" stroke-width="2"/>
<path fill-rule="evenodd" clip-rule="evenodd" d="M77.2599 66.6839L71.4244 55.842L82.3189 50.1053L73.954 47.5527L63.0593 53.2893L65.9628 58.7569L71.8268 69.5057L77.2599 66.6839Z" fill="#161616"/>
<path fill-rule="evenodd" clip-rule="evenodd" d="M84.4589 64.4011L81.5554 58.9336L78.6234 53.5591L73.2833 56.4093L79.0259 67.2228L68.1312 72.9595L76.4963 75.5121L81.9293 72.6904L87.3908 69.7754L84.4589 64.4011Z" fill="#161616"/>
<path fill-rule="evenodd" clip-rule="evenodd" d="M100.134 64.588C98.928 64.22 97.7933 64.2831 96.794 64.8992C95.7947 65.5154 95.0808 66.5256 94.6237 68.0236C94.1666 69.5215 94.1947 70.7583 94.5871 71.799C95.072 72.8681 95.8854 73.5258 97.1842 73.9221C98.0191 74.1769 98.9111 74.2444 100.017 74.2748L99.6459 75.4919C98.7253 75.5181 97.7404 75.4223 96.6272 75.0826C94.9574 74.573 93.8015 73.7085 93.1881 72.3956C92.5747 71.0827 92.568 69.4431 93.1394 67.5707C93.5108 66.3535 94.0106 65.3803 94.7316 64.6792C95.4525 63.9782 96.3305 63.4274 97.2155 63.1856C98.1005 62.944 99.2066 62.9746 100.413 63.3426C101.619 63.7106 102.582 64.2092 103.367 64.9605L102.467 65.9141C101.811 65.4067 101.062 64.8711 100.134 64.588Z" fill="#161616"/>
<path fill-rule="evenodd" clip-rule="evenodd" d="M109.473 75.5229C109.159 76.5527 108.559 77.1885 107.645 77.5237C106.732 77.859 105.718 77.8568 104.42 77.4605C103.028 77.0359 102.065 76.5372 101.437 75.9363L101.837 74.6255C102.244 74.9543 102.743 75.3114 103.178 75.5466C103.614 75.7817 104.235 76.0736 104.791 76.2434C105.719 76.5265 106.425 76.5374 106.882 76.3697C107.46 76.1368 107.789 75.7253 107.96 75.1635C108.074 74.7891 108.096 74.3863 107.967 74.1424C107.868 73.8049 107.646 73.5327 107.361 73.1386C107.047 72.8381 106.576 72.3874 105.92 71.88C105.014 71.1942 104.322 70.4712 104.122 69.7963C103.83 69.093 103.844 68.381 104.101 67.5384C104.358 66.6958 104.958 66.0601 105.779 65.6965C106.599 65.3329 107.584 65.4288 108.605 65.7402C109.718 66.0799 110.681 66.5784 111.559 67.358L110.845 68.3682C110.032 67.7107 109.161 67.2403 108.233 66.9572C107.491 66.7308 106.97 66.7765 106.421 66.9158C105.964 67.0835 105.635 67.4949 105.464 68.0567C105.35 68.4312 105.328 68.834 105.364 69.0495C105.464 69.387 105.592 69.6309 105.906 69.9314C106.22 70.2318 106.598 70.6542 107.254 71.1616C108.318 71.9977 109.01 72.7206 109.331 73.3303C109.716 74.0619 109.701 74.7739 109.473 75.5229Z" fill="#161616"/>
<path fill-rule="evenodd" clip-rule="evenodd" d="M118.286 78.2122C117.971 79.242 117.372 79.8778 116.458 80.2131C115.545 80.5483 114.531 80.5461 113.233 80.1498C111.841 79.7252 110.878 79.2265 110.25 78.6256L110.65 77.3149C111.057 77.6436 111.556 78.0007 111.991 78.2359C112.427 78.4711 113.047 78.7629 113.604 78.9327C114.532 79.2158 115.238 79.2267 115.695 79.0591C116.273 78.8261 116.602 78.4147 116.773 77.8528C116.887 77.4784 116.909 77.0756 116.78 76.8317C116.68 76.4942 116.459 76.2221 116.174 75.8279C115.86 75.5274 115.389 75.0768 114.733 74.5694C113.827 73.8835 113.134 73.1606 112.935 72.4856C112.642 71.7823 112.657 71.0704 112.914 70.2277C113.171 69.3852 113.771 68.7494 114.592 68.3858C115.412 68.0222 116.397 68.1181 117.418 68.4295C118.531 68.7692 119.494 69.2678 120.372 70.0473L119.658 71.0576C118.844 70.4 117.974 69.9297 117.046 69.6466C116.304 69.4201 115.783 69.4658 115.234 69.6051C114.777 69.7728 114.448 70.1843 114.277 70.746C114.163 71.1205 114.141 71.5233 114.177 71.7389C114.277 72.0763 114.405 72.3202 114.719 72.6207C115.033 72.9211 115.411 73.3436 116.067 73.851C117.131 74.6871 117.823 75.4099 118.144 76.0197C118.436 76.7229 118.514 77.4632 118.286 78.2122Z" fill="#161616"/>
<path d="M130.767 78.8485C130.196 80.7209 129.182 82.0491 127.848 82.7675C126.513 83.486 124.857 83.5948 122.909 83.0003L119.198 81.868L122.712 70.3522L126.609 71.5412C128.464 72.1074 129.713 73.0002 130.447 74.2477C131.182 75.4954 131.31 77.0696 130.767 78.8485ZM127.585 77.9796C127.899 76.9497 127.971 76.0505 127.65 75.4408C127.421 74.8595 126.858 74.3804 126.023 74.1256L125.095 73.8425L123.124 80.3026L123.773 80.5008C124.701 80.7839 125.436 80.7011 126.071 80.281C126.799 79.8891 127.242 79.1031 127.585 77.9796Z" fill="#161616"/>
<path d="M135.004 86.896C133.52 86.4431 132.521 85.7288 131.943 84.6314C131.337 83.6277 131.309 82.3909 131.766 80.893C132.223 79.395 132.937 78.3847 133.936 77.7686C134.936 77.1525 136.163 77.1177 137.555 77.5424C138.853 77.9387 139.759 78.6245 140.302 79.5064C140.844 80.3882 140.901 81.5314 140.501 82.8421L140.072 84.2464L134.599 82.5761C134.456 83.0443 134.527 83.4754 134.784 83.9632C135.069 84.3572 135.476 84.686 136.033 84.8559C136.589 85.0258 137.082 85.0736 137.574 85.1216C138.066 85.1695 138.587 85.1238 139.23 85.0128L138.544 87.2598C137.995 87.3991 137.502 87.3511 136.917 87.2749C136.332 87.1987 135.747 87.1225 135.004 86.896ZM136.99 79.7239C136.619 79.6107 136.312 79.6194 135.948 79.8154C135.613 79.9177 135.406 80.2639 135.17 80.7037L137.768 81.4963C137.911 81.0282 137.903 80.719 137.711 80.3533C137.704 80.044 137.454 79.8655 136.99 79.7239Z" fill="#161616"/>
<path fill-rule="evenodd" clip-rule="evenodd" d="M148.321 87.787C148.035 88.7233 147.528 89.3873 146.736 89.6573C145.944 89.9273 144.931 89.9251 143.725 89.5571C143.075 89.3589 142.519 89.189 142.083 88.9539C141.648 88.7187 141.12 88.4552 140.713 88.1264L141.456 85.6922C141.863 86.021 142.362 86.378 142.862 86.7352C143.39 86.9987 143.825 87.2338 144.289 87.3754C144.938 87.5736 145.366 87.4995 145.452 87.2187C145.509 87.0314 145.445 86.9095 145.288 86.7592C145.131 86.609 144.66 86.1583 143.94 85.529C143.219 84.8997 142.777 84.3553 142.613 83.896C142.477 83.3429 142.435 82.8181 142.635 82.1628C142.892 81.3202 143.37 80.7498 144.162 80.4797C144.955 80.2098 145.847 80.2773 147.053 80.6454C147.609 80.8152 148.137 81.0787 148.665 81.3422C149.193 81.6057 149.6 81.9345 150.071 82.3851L148.636 84.0965C148.322 83.796 147.915 83.4672 147.48 83.232C147.045 82.9969 146.702 82.79 146.424 82.7051C145.96 82.5635 145.653 82.5722 145.567 82.8531C145.51 83.0403 145.575 83.1623 145.732 83.3125C145.889 83.4628 146.295 83.7916 147.016 84.4208C147.58 84.8999 147.986 85.2286 148.179 85.5945C148.371 85.9603 148.564 86.326 148.571 86.6353C148.514 86.8224 148.464 87.3189 148.321 87.787Z" fill="#161616"/>
<path d="M152.562 79.8705C152.705 79.4023 152.912 79.0562 153.248 78.9539C153.583 78.8516 154.011 78.7776 154.568 78.9475C155.125 79.1173 155.56 79.3525 155.66 79.69C155.881 79.9622 155.859 80.3649 155.717 80.8331C155.431 81.7693 154.76 81.974 153.647 81.6342C152.598 81.4165 152.277 80.8067 152.562 79.8705ZM152.224 91.946L149.162 91.0117L151.877 82.1174L154.938 83.0517L152.224 91.946Z" fill="#161616"/>
<path d="M165.421 86.2506L164.964 87.7486L163.615 87.8487C163.715 88.1862 163.693 88.589 163.579 88.9635C163.293 89.8997 162.694 90.5355 161.873 90.899C161.052 91.2626 159.974 91.1384 158.675 90.742C158.304 90.6288 158.119 90.5722 157.962 90.4219C157.84 90.4872 157.783 90.6745 157.755 90.7681C157.697 90.9554 157.762 91.0773 158.011 91.2558C158.261 91.4344 158.54 91.5194 158.911 91.6326L160.395 92.0856C162.343 92.6801 163.107 93.8342 162.592 95.5194C162.25 96.6429 161.529 97.3439 160.429 97.6225C159.33 97.9012 157.917 97.8793 156.247 97.3697C155.041 97.0017 154.078 96.503 153.571 95.8367C153.036 95.2641 152.865 94.4954 153.093 93.7464C153.408 92.7165 154.286 92.1657 155.67 92.2813C155.42 92.1027 155.292 91.8588 155.099 91.493C155 91.1555 154.964 90.9399 155.05 90.6591C155.135 90.3782 155.314 90.1257 155.464 89.9667C155.706 89.8361 156.07 89.6402 156.62 89.5008C156.213 89.172 155.957 88.6843 155.792 88.2249C155.657 87.6718 155.707 87.1754 155.907 86.52C156.193 85.5838 156.792 84.948 157.613 84.5844C158.434 84.2209 159.448 84.2232 160.654 84.5913C160.839 84.6479 161.118 84.7328 161.46 84.9396C161.831 85.0528 162.081 85.2314 162.267 85.288L165.421 86.2506ZM155.684 94.2299C155.598 94.5109 155.634 94.7263 155.855 94.9986C156.076 95.2708 156.447 95.384 156.911 95.5256C157.654 95.7521 158.239 95.8283 158.76 95.7826C159.281 95.737 159.552 95.5127 159.638 95.2318C159.723 94.9509 159.659 94.829 159.41 94.6504C159.16 94.4718 158.817 94.265 158.261 94.0951L157.054 93.727C156.683 93.6138 156.469 93.6508 156.162 93.6595C155.92 93.7902 155.77 93.9491 155.684 94.2299ZM158.783 87.3977C158.497 88.334 158.633 88.887 159.282 89.0852C159.561 89.1701 159.868 89.1614 160.046 88.9088C160.289 88.7782 160.496 88.432 160.639 87.9639C160.924 87.0276 160.789 86.4746 160.139 86.2764C159.583 86.1066 159.069 86.4614 158.783 87.3977Z" fill="#161616"/>
<path fill-rule="evenodd" clip-rule="evenodd" d="M171.057 92.3712C171.228 91.8095 171.278 91.3131 171.179 90.9755C171.079 90.6381 170.858 90.3659 170.486 90.2527C169.93 90.0828 169.502 90.1568 169.173 90.5683C168.873 90.8861 168.459 91.5785 168.145 92.6084L166.945 96.5406L163.883 95.6063L166.597 86.712L168.917 87.4198L168.945 88.6565L169.131 88.7131C169.523 88.4236 170.009 88.1624 170.53 88.1167C171.051 88.071 171.636 88.1472 172.193 88.3171C173.213 88.6285 173.87 89.1359 174.255 89.8675C174.64 90.5991 174.661 91.5267 174.347 92.5565L172.576 98.3612L169.514 97.427L171.057 92.3712Z" fill="#161616"/>
<path d="M182.373 101.146L182.096 97.0703L177.55 95.6831L175.044 98.9098L173.745 98.5134L181.805 88.3849L182.919 88.7246L183.857 101.599L182.373 101.146ZM182.004 95.7117L181.79 91.7577C181.748 91.2329 181.734 90.6145 181.748 89.9025C181.512 90.3423 181.155 90.8475 180.77 91.4462L178.385 94.6075L182.004 95.7117Z" fill="#161616"/>
<path fill-rule="evenodd" clip-rule="evenodd" d="M192.114 104.119L192.08 98.5818C192.073 98.2726 192.116 97.467 192.151 96.3522L192.059 96.3239C191.587 97.2035 191.202 97.8022 190.845 98.3073L187.725 102.882L186.241 102.429L186.55 93.1076L187.941 93.5323C187.841 95.8554 187.698 97.654 187.726 98.8907C187.661 100.099 187.618 100.905 187.504 101.279L187.597 101.308C187.775 101.055 187.982 100.709 188.218 100.269C188.454 99.8291 188.753 99.5113 188.932 99.2587L192.023 94.778L193.415 95.2027L193.385 100.618C193.378 101.639 193.335 102.445 193.256 103.035L193.349 103.063C193.406 102.876 193.585 102.623 193.791 102.277C193.998 101.93 195.212 99.9469 197.311 96.3915L198.61 96.7878L193.662 104.693L192.085 104.212L192.114 104.119Z" fill="#161616"/>
<path d="M202.782 107.374L202.875 106.072L202.783 106.044C202.147 106.464 201.662 106.725 201.141 106.771C200.62 106.817 200.127 106.769 199.478 106.571C198.643 106.316 198.051 105.93 197.73 105.321C197.409 104.711 197.302 104.064 197.559 103.222C198.102 101.443 199.751 101.025 202.562 101.781L204.075 102.14L204.247 101.578C204.447 100.923 204.433 100.305 204.24 99.9388C204.047 99.573 203.641 99.2441 202.991 99.0459C202.249 98.8195 201.45 98.7802 200.379 98.9652L200.322 97.8221C200.843 97.7764 201.271 97.7025 201.885 97.6851C202.378 97.733 202.963 97.8092 203.427 97.9508C204.447 98.2622 205.132 98.676 205.453 99.2854C205.774 99.895 205.823 100.729 205.538 101.665L203.738 107.563L202.811 107.281L202.782 107.374ZM200.099 105.532C200.934 105.787 201.548 105.77 202.155 105.443C202.761 105.116 203.118 104.611 203.376 103.769L203.604 103.02L202.277 102.717C201.256 102.406 200.457 102.366 199.907 102.506C199.358 102.645 199.029 103.056 198.858 103.618C198.715 104.086 198.786 104.517 199.007 104.79C199.293 105.184 199.635 105.391 200.099 105.532Z" fill="#161616"/>
<path fill-rule="evenodd" clip-rule="evenodd" d="M212.982 100.867C213.353 100.98 213.724 101.093 213.974 101.272L213.417 102.432C213.074 102.225 212.796 102.14 212.518 102.055C211.868 101.857 211.133 101.94 210.498 102.36C209.862 102.78 209.356 103.444 209.098 104.287L207.699 108.875L206.4 108.478L209.028 99.8648L210.049 100.176L209.749 101.824L209.841 101.853C210.291 101.376 210.898 101.049 211.355 100.882C211.904 100.742 212.425 100.697 212.982 100.867Z" fill="#161616"/>
<path d="M219.081 111.12C218.174 111.764 217.104 111.949 215.898 111.581C214.784 111.241 214.064 110.612 213.643 109.665C213.223 108.718 213.287 107.51 213.716 106.105C214.144 104.701 214.766 103.662 215.643 103.111C216.521 102.56 217.498 102.347 218.612 102.687C219.725 103.027 220.51 103.778 220.902 104.819L220.995 104.847L221.102 104.163L222.388 99.9502L223.687 100.347L219.944 112.611L218.924 112.3L219.081 111.12ZM216.426 110.514C217.354 110.797 217.996 110.686 218.603 110.36C219.117 110.005 219.559 109.219 219.874 108.189L219.959 107.908C220.331 106.691 220.402 105.792 220.11 105.089C219.91 104.414 219.318 104.028 218.39 103.745C217.648 103.519 217.006 103.63 216.342 104.143C215.799 104.592 215.264 105.35 214.921 106.473C214.578 107.597 214.507 108.496 214.706 109.171C215.12 109.809 215.591 110.26 216.426 110.514Z" fill="#161616"/>
<path fill-rule="evenodd" clip-rule="evenodd" d="M228.914 112.79C228.657 113.633 228.208 114.11 227.415 114.38C226.716 114.678 225.824 114.61 224.71 114.271C223.597 113.931 222.727 113.461 222.192 112.888L222.564 111.671C222.878 111.971 223.284 112.3 223.719 112.535C224.154 112.77 224.589 113.005 225.053 113.147C225.703 113.345 226.288 113.421 226.716 113.347C227.144 113.273 227.444 112.956 227.587 112.487C227.701 112.113 227.601 111.775 227.38 111.503C227.188 111.137 226.717 110.687 225.967 110.151C225.218 109.615 224.747 109.165 224.526 108.892C224.213 108.592 224.113 108.255 224.013 107.917C223.913 107.58 223.935 107.177 224.049 106.803C224.249 106.147 224.699 105.67 225.399 105.372C226.097 105.074 226.896 105.113 227.917 105.424C228.845 105.707 229.715 106.178 230.436 106.807L229.658 107.695C228.937 107.066 228.159 106.624 227.51 106.426C226.86 106.228 226.368 106.18 226.033 106.282C225.697 106.384 225.426 106.608 225.312 106.983C225.254 107.17 225.261 107.479 225.326 107.601C225.361 107.817 225.518 107.967 225.739 108.239C225.961 108.512 226.367 108.84 227.024 109.348C227.93 110.034 228.465 110.606 228.722 111.094C229.043 111.704 229.086 112.228 228.914 112.79Z" fill="#161616"/>
</svg>
